<svg width="128" height="128" viewBox="0 0 128 128" fill="none" xmlns="http://www.w3.org/2000/svg">
<rect width="128" height="128" fill="white"/>
<g clip-path="url(#clip0_4_831)">
<path d="M64.0001 59.1026C48.4336 59.1026 35.7745 46.4189 35.7745 30.8331V24.916H47.5854V30.8331C47.5854 39.8978 54.9495 47.2733 64.0001 47.2733C73.0508 47.2733 80.4148 39.8978 80.4148 30.8331V24.916H92.2257V30.8331C92.2257 46.4238 79.5617 59.1026 64.0001 59.1026Z" fill="#5014F7"/>
<path d="M64.0002 39.4018C68.6602 39.4018 72.438 35.6182 72.438 30.9509C72.438 26.2836 68.6602 22.5 64.0002 22.5C59.3401 22.5 55.5624 26.2836 55.5624 30.9509C55.5624 35.6182 59.3401 39.4018 64.0002 39.4018Z" fill="#5014F7"/>
<path d="M79.0811 107.495L74.9039 103.311C63.897 92.2874 63.897 74.3544 74.9039 63.3304C80.2332 57.9928 87.3227 55.0514 94.8633 55.0514C102.404 55.0514 109.493 57.9928 114.823 63.3304L119 67.5141L110.646 75.8815L106.468 71.6978C100.07 65.2897 89.6565 65.2897 83.2534 71.6978C76.8552 78.106 76.8552 88.5358 83.2534 94.9488L87.4306 99.1325L79.0762 107.5L79.0811 107.495Z" fill="#5014F7"/>
<path d="M94.7848 91.6882C99.4449 91.6882 103.223 87.9046 103.223 83.2373C103.223 78.57 99.4449 74.7864 94.7848 74.7864C90.1247 74.7864 86.347 78.57 86.347 83.2373C86.347 87.9046 90.1247 91.6882 94.7848 91.6882Z" fill="#5014F7"/>
<path d="M48.9189 107.495L40.5644 99.1276L44.7417 94.9439C51.1399 88.5358 51.1399 78.106 44.7417 71.6929C41.6431 68.5895 37.5198 66.8758 33.1367 66.8758C28.7535 66.8758 24.6302 68.5846 21.5316 71.6929L17.3544 75.8766L9 67.5141L13.1772 63.3304C18.5066 57.9928 25.5961 55.0514 33.1367 55.0514C40.6772 55.0514 47.7667 57.9928 53.0961 63.3304C64.103 74.3544 64.103 92.2874 53.0961 103.311L48.9189 107.495Z" fill="#5014F7"/>
<path d="M33.2201 91.6882C37.8801 91.6882 41.6578 87.9046 41.6578 83.2373C41.6578 78.57 37.8801 74.7864 33.2201 74.7864C28.56 74.7864 24.7823 78.57 24.7823 83.2373C24.7823 87.9046 28.56 91.6882 33.2201 91.6882Z" fill="#5014F7"/>
</g>
<defs>
<clipPath id="clip0_4_831">
<rect width="110" height="85" fill="white" transform="translate(9 22.5)"/>
</clipPath>
</defs>
</svg>
